<?xml version="1.0" encoding="UTF-8" standalone="no"?>
<!DOCTYPE svg PUBLIC "-//W3C//DTD SVG 1.1//EN" "http://www.w3.org/Graphics/SVG/1.1/DTD/svg11.dtd">
<svg width="100%" height="100%" viewBox="0 0 850 850" version="1.1" xmlns="http://www.w3.org/2000/svg" xmlns:xlink="http://www.w3.org/1999/xlink" xml:space="preserve" xmlns:serif="http://www.serif.com/" style="fill-rule:evenodd;clip-rule:evenodd;stroke-linejoin:round;stroke-miterlimit:2;">
    <path d="M850,212.5C850,95.218 754.782,0 637.5,0L212.5,0C95.218,0 0,95.218 0,212.5L0,637.5C0,754.782 95.218,850 212.5,850L637.5,850C754.782,850 850,754.782 850,637.5L850,212.5Z" style="fill:url(#_Linear1);"/>
    <g transform="matrix(0.477209,0,0,0.477209,-106.91,-196.326)">
        <path d="M1170.38,2022.15L1058.86,2022.15L1066.78,2125.95C1066.78,2139.15 1077.5,2149.87 1090.7,2149.87L1138.53,2149.87C1151.73,2149.87 1162.45,2139.15 1162.45,2125.95L1170.38,2022.15Z" style="fill:rgb(230,3,72);"/>
    </g>
    <g transform="matrix(1.2608,0,0,1.2608,-1074.71,-2004.76)">
        <path d="M1256.41,1895.57C1237.11,1908.01 1214.14,1915.23 1189.49,1915.23C1165.07,1915.23 1142.29,1908.13 1123.09,1895.89L1143.16,2163.55C1143.16,2176.75 1153.88,2187.47 1167.08,2187.47L1214.91,2187.47C1228.11,2187.47 1238.83,2176.75 1238.83,2163.55L1256.41,1895.57Z" style="fill:rgb(230,3,72);"/>
    </g>
    <g transform="matrix(1.96433,0,0,-1.96433,232.795,201.556)">
        <path d="M98.373,71.668C98.224,71.677 97.68,71.673 97.68,71.673L97.68,71.674C95.463,71.648 93.251,71.562 91.043,71.387C88.303,77.146 85.29,82.899 82.065,88.312C80.293,91.286 76.812,92.788 73.432,92.037C62.605,89.63 51.904,86.255 41.863,81.201C39.088,79.805 37.369,76.932 37.45,73.827C37.627,66.978 38.017,60.357 38.736,53.718C36.221,52.185 33.723,50.627 31.4,48.769C29.406,47.235 27.379,45.717 25.408,44.12C20.42,47.216 15.247,50.137 9.959,52.798C6.771,54.402 2.905,53.707 0.476,51.092C-7.317,42.706 -14.586,33.642 -20.538,23.514C-22.045,20.949 -22.01,17.761 -20.445,15.23C-16.033,8.092 -11.424,1.402 -6.45,-4.947C-3.719,-8.433 1.328,-9.047 4.813,-6.316C8.299,-3.585 8.913,1.462 6.182,4.947C2.548,9.586 -0.873,14.422 -4.162,19.502C-0.454,25.231 3.717,30.571 8.137,35.632C12.821,33.066 17.38,30.299 21.755,27.405C24.928,25.307 29.138,25.725 31.836,28.406C34.746,31.297 38.048,33.638 41.261,36.11C41.305,36.144 41.349,36.178 41.392,36.213C44.594,38.784 48.218,40.635 51.646,42.832C54.272,44.514 55.686,47.566 55.269,50.658C54.445,56.782 53.949,62.831 53.673,69.026C59.354,71.51 65.236,73.441 71.196,74.996C73.981,69.92 76.558,64.64 78.879,59.45C80.37,56.117 83.924,54.211 87.525,54.813C90.929,55.381 94.345,55.585 97.775,55.628C97.798,55.629 97.821,55.629 97.845,55.629L97.851,55.629C101.298,55.587 104.741,55.385 108.168,54.813C111.768,54.211 115.321,56.116 116.813,59.448C119.136,64.639 121.715,69.919 124.498,74.995C130.459,73.441 136.342,71.51 142.023,69.026C141.746,62.83 141.251,56.78 140.428,50.655C140.014,47.567 141.424,44.518 144.046,42.835C147.469,40.638 151.1,38.786 154.302,36.214C154.347,36.178 154.392,36.142 154.438,36.107C157.655,33.636 160.949,31.296 163.856,28.407C166.554,25.725 170.765,25.307 173.938,27.405C178.312,30.299 182.873,33.066 187.556,35.631C191.977,30.571 196.149,25.231 199.857,19.503C196.567,14.423 193.148,9.587 189.514,4.948C186.783,1.463 187.395,-3.585 190.881,-6.315C194.366,-9.046 199.414,-8.434 202.144,-4.948C207.119,1.401 211.725,8.091 216.139,15.229C217.704,17.759 217.741,20.947 216.234,23.513C210.284,33.642 203.01,42.706 195.217,51.092C192.787,53.707 188.922,54.402 185.733,52.797C180.448,50.137 175.275,47.216 170.287,44.121C168.319,45.717 166.293,47.235 164.281,48.78C161.96,50.634 159.468,52.188 156.961,53.716C157.678,60.356 158.068,66.977 158.246,73.826C158.327,76.932 156.608,79.805 153.833,81.202C143.791,86.256 133.09,89.63 122.258,92.037C118.877,92.788 115.394,91.284 113.623,88.307C110.403,82.896 107.392,77.144 104.651,71.386C102.562,71.553 100.468,71.639 98.373,71.668ZM97.775,55.655L97.775,55.635L97.775,55.655Z" style="fill:rgb(230,3,72);"/>
    </g>
    <g transform="matrix(1.2608,0,0,1.2608,-1074.71,-2004.76)">
        <path d="M1094.16,1817.32L1125.03,1821.96C1125.26,1822.47 1125.83,1823.86 1125.88,1824.91L1126.9,1847.75C1127.04,1850.82 1129.4,1853.34 1132.46,1853.68L1161.27,1856.88C1162.93,1857.06 1164.6,1856.57 1165.9,1855.52C1167.2,1854.46 1168.02,1852.92 1168.18,1851.26L1170.14,1830.56C1170.21,1829.75 1170.67,1828.68 1170.92,1828.15L1208.22,1828.15C1208.47,1828.68 1208.92,1829.75 1209,1830.56L1210.96,1851.26C1211.12,1852.92 1211.94,1854.46 1213.24,1855.52C1214.54,1856.57 1216.21,1857.06 1217.87,1856.88L1246.68,1853.68C1249.74,1853.34 1252.1,1850.82 1252.24,1847.75L1253.26,1824.91C1253.31,1823.86 1253.88,1822.48 1254.11,1821.96L1284.82,1817.35C1273.43,1859.32 1235.04,1890.23 1189.49,1890.23C1143.93,1890.23 1105.54,1859.31 1094.16,1817.32ZM1091.56,1804.29C1091.02,1800.09 1090.74,1795.81 1090.74,1791.47C1090.74,1736.96 1134.99,1692.71 1189.49,1692.71C1244,1692.71 1288.25,1736.96 1288.25,1791.47C1288.25,1795.82 1287.97,1800.11 1287.42,1804.31L1251.56,1809.7C1246.33,1810.49 1241.14,1816.2 1240.77,1824.35L1239.99,1841.85L1222.81,1843.75L1221.45,1829.38C1220.65,1820.97 1214.68,1815.65 1209.22,1815.65L1169.92,1815.65C1164.46,1815.65 1158.49,1820.97 1157.69,1829.38L1156.33,1843.75L1139.15,1841.85L1138.37,1824.35C1138,1816.2 1132.81,1810.49 1127.58,1809.7L1091.56,1804.29Z" style="fill:rgb(230,3,72);"/>
    </g>
    <g transform="matrix(1.57857,0,0,1.59074,43.8667,563.417)">
        <g>
            <text x="0px" y="0px" style="font-family:'LilitaOne', 'Lilita One';font-size:100px;fill:rgb(230,3,72);">Go</text>
            <g transform="matrix(1,0,0,1,0,100)">
                <text x="0px" y="0px" style="font-family:'LilitaOne', 'Lilita One';font-size:100px;fill:rgb(230,3,72);">Sing</text>
            </g>
        </g>
    </g>
    <defs>
        <linearGradient id="_Linear1" x1="0" y1="0" x2="1" y2="0" gradientUnits="userSpaceOnUse" gradientTransform="matrix(0.3268,850,-850,0.3268,425,0)"><stop offset="0" style="stop-color:rgb(251,248,242);stop-opacity:1"/><stop offset="0.22" style="stop-color:rgb(238,226,205);stop-opacity:1"/><stop offset="0.59" style="stop-color:rgb(236,222,198);stop-opacity:1"/><stop offset="1" style="stop-color:rgb(228,169,255);stop-opacity:1"/></linearGradient>
    </defs>
</svg>
